<svg xmlns="http://www.w3.org/2000/svg" viewBox="0 0 358 55"><title>Klappir Green Solutions</title><path fill="#00AEE6" d="M82.2 30.8h-.1L55.7 5.1 43 17.5h-.3L40.3 15l-.1-.1v-.2L55.6.1h.3l29 28v.3l-2.4 2.3-.2.1"></path><path fill="#9ACA3C" d="M98.8 55H68.4h-.1l-38-37.3L17.7 30h-.3L15 27.7a.2.2 0 010-.3L30 12.5h.3l39.7 39h20.1L68.6 30.1l-6.3 6.2H62L59.6 34v-.3l8.9-8.6h.3l30.1 29.5v.3l-.1.1"></path><path fill="#FFC20E" d="M60 55H43h-.2L24 36.6 8.7 51.5h22.8l3.3 3.1v.3l-.2.1H.2l-.2-.1v-.3l23.8-23h.3l20.4 19.9H57l3.2 3.1v.3l-.1.1"></path><path fill="#FFFFFFC4" d="M142.2 43l-10.7-13.8 10.1-9.2h-8.3l-11.6 10.7V20H115v23h6.6v-5.4l5.1-4.5 7.7 9.9h7.8zm18.9-5.4V20h-6.7v23h22v-5.4h-15.3zm49.4 5.4h7l-11.7-23h-7.3l-11.8 23h7l2.1-4.4h12.5l2.2 4.4zm-12.4-9.2l4-8.1 4 8.1h-8zM245.8 20h-15.9v23h6.7v-6.9h9.2c6.2 0 10.4-2.7 10.4-8S252 20 245.8 20zm-.6 11.3h-8.6V25h8.6c2.5 0 4.2.8 4.2 3 0 2.4-1.7 3.2-4.2 3.2zM285.3 20h-15.9v23h6.7v-6.9h9.2c6.3 0 10.4-2.7 10.4-8s-4.1-8.1-10.4-8.1zm-.6 11.3h-8.6V25h8.6c2.5 0 4.2.8 4.2 3 0 2.4-1.7 3.2-4.2 3.2zM309 43h6.7V20H309v23zm49 0l-6.8-7.8c3.6-1 6-3.5 6-7.4 0-5.2-4.4-7.8-10.3-7.8h-16v23h6.6v-7.3h6.7l6 7.3h7.8zm-20.6-18h9c2.3 0 4 .8 4 3 0 2.3-1.7 2.9-4 2.9h-9V25z"></path></svg>
