<svg xmlns="http://www.w3.org/2000/svg" style="max-height: 100%;" viewBox="0 0 903 142"><g fill="none" fill-rule="evenodd"><path fill="#fff" d="M203.54491,80 C203.403986,80 203.268509,79.9429797 203.169113,79.8407604 L138.133147,13.4121129 L106.831057,45.3845067 C106.623416,45.5965944 106.287105,45.5965944 106.078783,45.3845067 L100.155901,39.3340968 C100.055825,39.2325728 100,39.0941943 100,38.9502528 C100,38.8063113 100.055825,38.6679328 100.155901,38.5657135 L137.757351,0.159065771 C137.964992,-0.0530219237 138.301303,-0.0530219237 138.508944,0.159065771 L209.844269,73.0219672 C210.05191,73.2340549 210.05191,73.5782627 209.844269,73.7903504 L203.920706,79.8407604 C203.821311,79.9429797 203.686514,80 203.54491,80"></path><path fill="#fff" d="M243.46912,142 L168.765414,142 C168.625474,142 168.490288,141.942608 168.390428,141.839723 L74.883083,45.4993049 L43.8169985,77.5063929 C43.6179571,77.7114634 43.2653888,77.7114634 43.0663474,77.5063929 L37.1555648,71.4165704 C37.0557044,71.3143852 37,71.1751052 37,71.0302261 C37,70.885347 37.0557044,70.746067 37.1555648,70.6431819 L74.5074178,32.1606269 C74.7152904,31.9464577 75.0508756,31.9464577 75.2580689,32.1606269 L172.884824,132.745234 L222.445456,132.745234 L169.206294,77.8934372 L153.691933,93.8770341 C153.48474,94.0905033 153.149155,94.0905033 152.941961,93.8770341 L147.031179,87.7872116 C146.823986,87.5737423 146.823986,87.2279921 147.031179,87.013823 L168.830629,64.5540593 C169.03035,64.3489888 169.382918,64.3496887 169.58128,64.5540593 L243.844106,141.066335 C243.996274,141.223112 244.041789,141.458278 243.959591,141.662649 C243.877393,141.867019 243.683786,142 243.46912,142"></path><path fill="#fff" d="M148.468433,142 L105.931398,142 C105.789916,142 105.655236,141.942985 105.555247,141.840776 L59.1492289,94.40454 L21.5824202,132.806031 L77.5840303,132.806031 C77.7255121,132.806031 77.8601918,132.863046 77.9601813,132.965255 L85.8913224,141.072468 C86.0436874,141.228216 86.0885806,141.461837 86.0069565,141.664865 C85.9246522,141.867893 85.730795,142 85.5158516,142 L0.531566579,142 C0.316623133,142 0.122765912,141.867893 0.0404616183,141.664865 C-0.0418426756,141.461837 0.00373077638,141.228216 0.15609575,141.072468 L58.7737581,81.1527925 C58.9730569,80.9490692 59.3260811,80.9490692 59.5253799,81.1527925 L110.056135,132.806031 L140.536612,132.806031 C140.678094,132.806031 140.812774,132.863046 140.912763,132.965255 L148.843904,141.072468 C148.996269,141.228216 149.041843,141.461837 148.959538,141.664865 C148.877234,141.867893 148.683377,142 148.468433,142"></path><path fill="#fff" d="M340.651915,114.249697 L309.701188,74.6449878 L338.959084,48.3983033 L315.064421,48.3983033 L281.385921,78.878366 L281.385921,48.3983033 L262.194,48.3983033 L262.194,114.249697 L281.385921,114.249697 L281.385921,98.9154025 L295.967412,85.9331295 L318.074332,114.249697 L340.651915,114.249697 Z M382.931728,98.8217897 L382.931728,48.3983033 L363.741107,48.3983033 L363.741107,114.249697 L427.240479,114.249697 L427.240479,98.8217897 L382.931728,98.8217897 Z M516.35838,114.249697 L536.772468,114.249697 L502.718217,48.3983033 L481.739852,48.3983033 L447.685601,114.249697 L467.81625,114.249697 L474.025898,101.643175 L510.150032,101.643175 L516.35838,114.249697 Z M480.611298,88.0030122 L492.087965,64.6726259 L503.47102,88.0030122 L480.611298,88.0030122 Z M608.958155,48.3983033 L563.237411,48.3983033 L563.237411,114.249697 L582.429332,114.249697 L582.429332,94.4947988 L608.958155,94.4947988 C626.925309,94.4947988 638.872641,86.7795451 638.872641,71.446551 C638.872641,56.3007825 626.925309,48.3983033 608.958155,48.3983033 Z M607.358937,80.5711972 L582.429332,80.5711972 L582.429332,62.9797947 L607.358937,62.9797947 C614.508613,62.9797947 619.399881,65.1432902 619.399881,71.8223023 C619.399881,78.4077017 614.508613,80.5711972 607.358937,80.5711972 Z M666.16027,48.3983033 L666.16027,114.249697 L685.352191,114.249697 L685.352191,94.4947988 L711.881014,94.4947988 C729.849468,94.4947988 741.796799,86.7795451 741.796799,71.446551 C741.796799,56.3007825 729.849468,48.3983033 711.881014,48.3983033 L666.16027,48.3983033 Z M685.352191,80.5711972 L685.352191,62.9797947 L710.281795,62.9797947 C717.431472,62.9797947 722.32274,65.1432902 722.32274,71.8223023 C722.32274,78.4077017 717.431472,80.5711972 710.281795,80.5711972 L685.352191,80.5711972 Z M770.084428,114.249697 L789.275049,114.249697 L789.275049,48.3983033 L770.084428,48.3983033 L770.084428,114.249697 Z M902.194,114.249697 L882.814853,91.860639 C893.162967,88.8494278 900.124117,81.8882771 900.124117,70.882274 C900.124117,55.8301183 887.048232,48.3983033 870.208332,48.3983033 L824.018223,48.3983033 L824.018223,114.249697 L843.115232,114.249697 L843.115232,93.4598574 L862.494378,93.4598574 L879.898555,114.249697 L902.194,114.249697 Z M843.021619,79.5362558 L843.021619,62.9797947 L868.797639,62.9797947 C875.665177,62.9797947 880.651358,64.8611516 880.651358,71.2580253 C880.651358,77.6548989 875.665177,79.5362558 868.797639,79.5362558 L843.021619,79.5362558 Z"></path></g></svg>
